<?xml version="1.0" encoding="UTF-8"?>
<svg width="1200pt" height="1200pt" version="1.1" viewBox="0 0 1200 1200" xmlns="http://www.w3.org/2000/svg">
 <path d="m506.26 468.74h93.75v281.26c0 10.359 8.3906 18.75 18.75 18.75h75c10.359 0 18.75-8.3906 18.75-18.75v-281.26h93.75c10.359 0 18.75-8.3906 18.75-18.75v-75c0-10.359-8.3906-18.75-18.75-18.75h-93.75v-93.75c0-10.359-8.3906-18.75-18.75-18.75h-75c-10.359 0-18.75 8.3906-18.75 18.75v93.75h-93.75c-10.359 0-18.75 8.3906-18.75 18.75v75c0 10.359 8.3906 18.75 18.75 18.75zm18.75-75h93.75c10.359 0 18.75-8.3906 18.75-18.75v-93.75h37.5v93.75c0 10.359 8.3906 18.75 18.75 18.75h93.75v37.5h-93.75c-10.359 0-18.75 8.3906-18.75 18.75v281.26h-37.5v-281.26c0-10.359-8.3906-18.75-18.75-18.75h-93.75zm456.1 486.47c0.23438-0.09375 0.375-0.23438 0.5625-0.32813 0.9375-0.375 1.6875-0.9375 2.5312-1.4062 1.1719-0.70312 2.3438-1.3594 3.3281-2.25 0.70312-0.65625 1.2188-1.4062 1.8281-2.1562 0.84375-1.0781 1.6406-2.1094 2.25-3.3281 0.42188-0.84375 0.70312-1.7344 0.98438-2.625 0.42188-1.3594 0.70312-2.7188 0.84375-4.125 0.046875-0.51563 0.32812-0.98438 0.32812-1.5469v-749.95c0-10.359-8.3906-18.75-18.75-18.75h-637.5c-72.375 0-131.26 58.875-131.26 131.26v750c0 35.016 13.641 67.922 38.484 92.766 24.797 24.844 57.75 38.484 92.766 38.484h637.5c9.2344 0 17.062-6.7031 18.516-15.844s-3.9375-17.906-12.703-20.766c-9.7031-3.1406-20.859-14.531-29.859-23.672l-4.6875-4.7812c-17.766-17.719-27.516-41.25-27.516-66.234 0-20.344 6.2344-40.641 17.859-58.594 11.625-17.438 27.422-30.281 44.531-36.188zm-24.844-36.469h-600v-712.5h600zm-712.5 39.469v-658.22c0-45.281 32.25-83.156 75-91.875v711.94c-1.5469 0.23438-2.9531 0.75-4.4531 1.0312-2.8594 0.51562-5.625 1.2656-8.4375 1.9688-5.0625 1.2656-10.031 2.7656-14.859 4.6406-2.7656 1.0781-5.4844 2.1562-8.2031 3.375-4.7344 2.2031-9.2344 4.6875-13.688 7.4062-2.2969 1.4062-4.6406 2.7188-6.8906 4.2656-5.2031 3.6562-10.031 7.7344-14.625 12.094-1.0781 0.98438-2.25 1.8281-3.2812 2.8594-0.1875 0.1875-0.42188 0.32812-0.60938 0.51562zm93.75 185.53c-24.984 0-48.516-9.7969-66.234-27.516-17.766-17.719-27.516-41.25-27.516-66.234 0-51.703 42.047-93.75 93.75-93.75h578.86c-3.9375 4.5469-7.6406 9.4219-11.062 14.531-4.7812 7.3594-8.625 15.094-12 22.969h-555.74c-10.359 0-18.75 8.3906-18.75 18.75 0 10.359 8.3906 18.75 18.75 18.75h545.16c-0.84375 6.2344-1.4062 12.469-1.4062 18.75 0 6.375 0.9375 12.562 1.8281 18.75h-545.58c-10.359 0-18.75 8.3906-18.75 18.75 0 10.359 8.3906 18.75 18.75 18.75h556.92c6.375 13.312 14.578 25.781 25.312 36.516l0.98438 0.98438z"/>
</svg>
